<?xml version="1.0" encoding="iso-8859-1"?>
<!-- Generator: Adobe Illustrator 19.1.0, SVG Export Plug-In . SVG Version: 6.00 Build 0)  -->
<svg version="1.1" id="Layer_1" xmlns="http://www.w3.org/2000/svg" xmlns:xlink="http://www.w3.org/1999/xlink" x="0px" y="0px"
	 viewBox="0 0 200 200" enable-background="new 0 0 200 200" xml:space="preserve">
<circle fill="#262626" cx="100" cy="100" r="100"/>
<path d="M3.954,127.915C16.036,169.558,54.461,200,100,200c23.197,0,44.547-7.901,61.511-21.154L134.5,89L57.078,74.79
	L3.954,127.915z"/>
<g>
	<g>
		<path fill="#159FC0" d="M153.024,173.535l-9.099-92.546c-0.663-4.824-4.715-8.412-9.499-8.412H69.381
			c-4.784,0-8.835,3.589-9.499,8.412l-9.099,92.546c-0.808,5.875,3.673,11.12,9.499,11.12h83.243
			C149.351,184.656,153.832,179.41,153.024,173.535z M84.754,182.448c0,2.697-2.186,4.883-4.883,4.883s-4.883-2.186-4.883-4.883
			l4.883-56.156c0-2.697,2.186-4.883,4.883-4.883s4.883,2.186,4.883,4.883L84.754,182.448z M104.287,182.448
			c0,2.697-2.186,4.883-4.883,4.883s-4.883-2.186-4.883-4.883v-56.156c0-2.697,2.186-4.883,4.883-4.883s4.883,2.186,4.883,4.883
			V182.448z M118.936,187.331c-2.697,0-4.883-2.186-4.883-4.883l-4.883-56.156c0-2.697,2.186-4.883,4.883-4.883
			c2.697,0,4.883,2.186,4.883,4.883l4.883,56.156C123.819,185.145,121.633,187.331,118.936,187.331z"/>
		<path fill="#51C6EC" d="M155.466,173.535l-9.099-92.546c-0.663-4.824-4.715-8.412-9.499-8.412H62.823
			c-4.784,0-8.835,3.589-9.499,8.412l-9.099,92.546c-0.808,5.875,3.673,11.12,9.499,11.12h92.243
			C151.793,184.656,156.273,179.41,155.466,173.535z M87.196,182.448c0,2.697-2.186,4.883-4.883,4.883
			c-2.697,0-4.883-2.186-4.883-4.883l4.883-56.156c0-2.697,2.186-4.883,4.883-4.883c2.697,0,4.883,2.186,4.883,4.883L87.196,182.448
			z M106.728,182.448c0,2.697-2.186,4.883-4.883,4.883s-4.883-2.186-4.883-4.883v-56.156c0-2.697,2.186-4.883,4.883-4.883
			s4.883,2.186,4.883,4.883V182.448z M121.378,187.331c-2.697,0-4.883-2.186-4.883-4.883l-4.883-56.156
			c0-2.697,2.186-4.883,4.883-4.883s4.883,2.186,4.883,4.883l4.883,56.156C126.261,185.145,124.075,187.331,121.378,187.331z"/>
		<g>
			<path fill="#159FC0" d="M47.225,176.076l9.099-92.546c0.663-4.823,4.715-8.412,9.426-8.339h74.045
				c1.698-0.073,3.233,0.349,4.585,1.085c-1.768-2.267-4.493-3.698-7.512-3.698H62.823c-4.784,0-8.836,3.589-9.499,8.412
				l-9.099,92.546c-0.581,4.226,1.582,8.116,5.006,9.972C47.658,181.497,46.842,178.861,47.225,176.076z"/>
		</g>
		<path fill="#B3EFFF" d="M62.823,72.577h74.045c4.784,0,8.835,3.589,9.499,8.412l9.099,92.546c0.808,5.875-3.673,11.12-9.499,11.12
			h-4.883c5.826,0,12.306-5.245,11.499-11.12l-9.099-90.104c-0.663-4.824-3.753-8.23-9.685-8.23H68.027L62.823,72.577z"/>
		<circle fill="#159FC0" cx="82.077" cy="100.118" r="4.854"/>
		<circle fill="#BCBEC0" cx="81.577" cy="100.618" r="4.147"/>
		<path fill="#D1D3D4" d="M78.644,97.686c1.62-1.62,4.245-1.62,5.865,0c1.62,1.62,1.62,4.245,0,5.865"/>
		<rect x="81.104" y="98.805" fill="#808285" width="1.08" height="3.875"/>
		<rect x="79.707" y="100.203" fill="#808285" width="3.875" height="1.08"/>
		<circle fill="#159FC0" cx="119.091" cy="100.104" r="4.84"/>
		<circle fill="#BCBEC0" cx="118.577" cy="100.618" r="4.147"/>
		<path fill="#D1D3D4" d="M115.644,97.686c1.62-1.62,4.245-1.62,5.865,0c1.62,1.62,1.62,4.245,0,5.865"/>
		<rect x="118.104" y="98.805" fill="#808285" width="1.08" height="3.875"/>
		<rect x="116.707" y="100.203" fill="#808285" width="3.875" height="1.08"/>
	</g>
	<g transform="matrix( 1, 0, 0, 1, 383.25,267.65) ">
		<path fill="#44E17D" d="M-291.76-117.503h-68.028c-0.44,0-0.796-0.356-0.796-0.796v-14.317c0-0.44,0.356-0.796,0.796-0.796h68.028
			V-117.503z"/>
		<path fill="#2BAF56" d="M-346.819-117.503h-12.969c-0.44,0-0.796-0.356-0.796-0.796v-14.317c0-0.44,0.356-0.796,0.796-0.796
			h12.969V-117.503z"/>
		<rect x="-344.525" y="-131.139" fill="#F7EDDD" width="52.765" height="11.364"/>
		<rect x="-344.525" y="-131.139" fill="#2BAF56" width="52.765" height="2.273"/>
		<rect x="-344.525" y="-126.594" fill="#FFFFFF" width="52.765" height="2.273"/>
		<rect x="-344.525" y="-122.048" fill="#FFFFFF" width="52.765" height="2.273"/>
		<path fill="#FDE000" d="M-303.23-133.412h-49.675c-0.44,0-0.796-0.356-0.796-0.796v-7.499c0-0.44,0.356-0.796,0.796-0.796h49.675
			V-133.412z"/>
		<path fill="#D1AB2A" d="M-339.936-133.412h-12.969c-0.44,0-0.796-0.356-0.796-0.796v-7.499c0-0.44,0.356-0.796,0.796-0.796h12.969
			V-133.412z"/>
		<rect x="-337.642" y="-140.23" fill="#F7EDDD" width="34.412" height="4.545"/>
		<rect x="-337.642" y="-140.23" fill="#D1AB2A" width="34.412" height="2.273"/>
		<rect x="-337.642" y="-137.957" fill="#FFFFFF" width="34.412" height="2.273"/>
		<path fill="#C474D2" d="M-204.583-117.503h-66.529c-1.267,0-2.294-1.018-2.294-2.273v-11.364c0-1.255,1.027-2.273,2.294-2.273
			l66.529,6.818v2.374l-2-0.102v4.545l2,0V-117.503z"/>
		<path fill="#974D98" d="M-259.642-117.503h-11.471c-1.267,0-2.294-1.018-2.294-2.273v-11.364c0-1.255,1.027-2.273,2.294-2.273
			l11.471,1.176V-117.503z"/>
		<polygon fill="#974D98" points="-206.583,-123.185 -257.348,-123.185 -257.348,-130.003 -204.583,-124.22 		"/>
		<path fill="none" stroke="#CDCBCB" stroke-width="1.1419" stroke-miterlimit="10" d="M-257.348-127.73
			c1.9,0,3.441,1.526,3.441,3.409c0,1.883-1.541,3.409-3.441,3.409"/>
		<rect x="-257.348" y="-123.185" fill="#F7EDDD" width="50.765" height="3.409"/>
	</g>
	<g>
		<g>
			<path fill-rule="evenodd" clip-rule="evenodd" fill="#8A5D3B" d="M14.5,152.196C32,180.849,63.743,200,100,200
				s68-19.151,85.5-47.804H14.5z"/>
			<path fill="#6E4A2F" d="M175.318,165.999c2.216-2.521,4.307-5.152,6.26-7.887H18.422c1.953,2.736,4.044,5.366,6.26,7.887H175.318
				z"/>
		</g>
		<g transform="matrix( 1, 0, 0, 1, 0,0) ">
			<g>
				<g id="Duplicate_Items_Folder_Symbol_13_copy_2_0_Layer0_0_FILL_2_">
					<path fill="#A87C4F" d="M196.067,158.147H3.933c-2.172,0-3.933-1.791-3.933-4l0,0c0-2.209,1.761-4,3.933-4h192.134
						c2.172,0,3.933,1.791,3.933,4l0,0C200,156.356,198.239,158.147,196.067,158.147z"/>
				</g>
			</g>
		</g>
	</g>
</g>
<g>
	<circle cx="98" cy="40" r="16"/>
</g>
<g>
	<path fill="#FDE000" d="M102,50.5c-7.995,0-14.5-6.505-14.5-14.5s6.505-14.5,14.5-14.5s14.5,6.505,14.5,14.5S109.995,50.5,102,50.5
		z"/>
	<path fill="#FFC600" d="M102,23c7.168,0,13,5.832,13,13s-5.832,13-13,13s-13-5.832-13-13S94.832,23,102,23 M102,20
		c-8.837,0-16,7.163-16,16s7.163,16,16,16s16-7.163,16-16S110.837,20,102,20L102,20z"/>
</g>
<polyline fill="none" stroke="#262626" stroke-width="2" stroke-linecap="round" stroke-linejoin="round" stroke-miterlimit="10" points="
	102,26 102,36 107,41 "/>
</svg>
