<?xml version="1.0" encoding="iso-8859-1"?>
<!-- Generator: Adobe Illustrator 19.0.1, SVG Export Plug-In . SVG Version: 6.00 Build 0)  -->
<svg version="1.1" id="_x38_.8.1" xmlns="http://www.w3.org/2000/svg" xmlns:xlink="http://www.w3.org/1999/xlink" x="0px" y="0px"
	 viewBox="0 0 100 100" enable-background="new 0 0 100 100" xml:space="preserve">
<symbol  id="Apollo_Top_Panel" viewBox="-419.999 -23.287 800 45.286">
	<polygon fill="#4D4D4D" points="380.001,-23.287 -419.999,-23.287 -419.999,21.999 380.001,21.999 	"/>
	<polygon fill="none" points="-215.332,4.648 -400.999,4.648 -400.999,-4.649 -215.332,-4.649 	"/>
	<text transform="matrix(1 0 0 -1 -400.9995 -4.4722)" fill="#F0F0F0" font-family="'NotoSerif'" font-size="12px">Biology Lecture - Week 2</text>
</symbol>
<symbol  id="instructor_control_panel_4" viewBox="-136.371 -21.63 235.157 38.849">
	<g>
		<polygon fill="#969696" points="-136.371,-17.318 98.785,-17.318 98.785,17.219 -136.371,17.219 		"/>
	</g>
	<g>
		<path id="mic_icon_34_" fill-rule="evenodd" clip-rule="evenodd" fill="#4D4E4E" d="M-111.522,4.335V0.112
			c-0.66-0.091-1.462-0.147-2.334-0.147c-0.898,0-1.738,0.06-2.425,0.156v4.214c0,1.331,1.065,2.41,2.38,2.41
			C-112.587,6.745-111.522,5.666-111.522,4.335z M-118.04-0.912v1.413c0,0.042,0.02,0.084,0.059,0.127
			c0.081,0.088,0.246,0.174,0.48,0.253v3.453c0,2.013,1.611,3.645,3.599,3.645c1.988,0,3.599-1.632,3.599-3.645V0.872
			c0.233-0.078,0.398-0.161,0.48-0.248c0.039-0.041,0.059-0.082,0.059-0.123v-1.413V-1.68c0-0.131-0.196-0.255-0.54-0.361v-2.373
			c0-2.013-1.611-3.645-3.599-3.645c-1.988,0-3.599,1.632-3.599,3.645v2.373c-0.344,0.106-0.54,0.23-0.54,0.361V-0.912z
			 M-114.622-10.714v0.696c-2.741,0.358-4.858,2.73-4.858,5.604v3.099h-0.541v1.458h1.799v-1.458h-0.36l0.001-3.099
			c0-2.618,2.094-4.738,4.678-4.738c2.584,0,4.678,2.121,4.678,4.738v3.099h-0.36v1.458h1.799v-1.458h-0.54v-3.099
			c0-2.874-2.118-5.245-4.859-5.604v-0.696c2.443-0.078,4.319-0.553,4.319-1.128v-0.173v-0.465c0-0.628-2.256-1.139-5.038-1.139
			c-2.783,0-5.038,0.511-5.038,1.139v0.465v0.173C-118.94-11.267-117.063-10.792-114.622-10.714z"/>
		<g id="video_icon_30_">
			<path fill-rule="evenodd" clip-rule="evenodd" fill="none" stroke="#4D4E4E" stroke-width="2.0128" stroke-miterlimit="10" d="
				M-70.25,0.219c0-3.837-3.071-6.948-6.859-6.948c-3.788,0-6.859,3.111-6.859,6.948s3.071,6.948,6.859,6.948
				C-73.321,7.167-70.25,4.057-70.25,0.219z"/>
			<path fill-rule="evenodd" clip-rule="evenodd" fill="none" stroke="#4D4E4E" stroke-width="2.0128" stroke-miterlimit="10" d="
				M-74.11,0.219c0-1.678-1.343-3.039-3-3.039s-3,1.36-3,3.039s1.343,3.039,3,3.039S-74.11,1.898-74.11,0.219z"/>
			<g>
				<defs>
					<polygon id="SVGID_1_" points="-66.84,-12.143 -85.84,-12.143 -85.84,-5.052 -66.84,-5.052 					"/>
				</defs>
				<clipPath id="SVGID_2_">
					<use xlink:href="#SVGID_1_"  overflow="visible"/>
				</clipPath>
				
					<path clip-path="url(#SVGID_2_)" fill-rule="evenodd" clip-rule="evenodd" fill="none" stroke="#4D4E4E" stroke-width="2.0128" stroke-miterlimit="10" d="
					M-70.375-13.676c0-3.837-3.015-6.948-6.734-6.948s-6.734,3.111-6.734,6.948s3.015,6.948,6.734,6.948
					S-70.375-9.839-70.375-13.676z"/>
			</g>
		</g>
		<g>
			<path fill="#4D4E4E" d="M82.435-2.819c0-4.71-3.818-8.527-8.527-8.527S65.38-7.529,65.38-2.819s3.818,8.527,8.527,8.527
				S82.435,1.89,82.435-2.819z"/>
			<path fill="#F0EFEF" d="M79.407-2.819c0-3.038-2.462-5.5-5.5-5.5s-5.5,2.462-5.5,5.5s2.462,5.5,5.5,5.5
				S79.407,0.218,79.407-2.819z"/>
		</g>
		<g id="share_icon_24_">
			<g>
				<path fill="#4D4E4E" d="M-30.301,4.749h-16.958c-0.293,0-0.529-0.238-0.529-0.531V-6.992c0-0.293,0.237-0.531,0.529-0.531h5.749
					V-8.6c-0.688,0-2.2,0-2.2,0c-0.294,0-0.529-0.238-0.529-0.531v-0.728c0-0.291,0.235-0.529,0.529-0.529h9.864
					c0.291,0,0.529,0.238,0.529,0.529v0.728c0,0.293-0.238,0.531-0.529,0.531c0,0-1.515,0-2.204,0v1.077h5.75
					c0.293,0,0.532,0.238,0.532,0.531V4.218C-29.769,4.511-30.008,4.749-30.301,4.749z M-30.83-6.462h-15.898V3.689h15.898V-6.462z"
					/>
			</g>
		</g>
		<g>
			<path id="hand_icon_19_" fill="#4D4E4E" d="M2.751,1.531c-0.483,0-0.908-0.235-1.177-0.593v0.124
				c0,0.817-0.661,1.478-1.478,1.478c-0.475,0-0.892-0.228-1.163-0.575v0.029c0,0.817-0.661,1.478-1.478,1.478
				c-0.473,0-0.89-0.226-1.16-0.572v5.189c0,0.817-0.661,1.478-1.478,1.478c-0.817,0-1.478-0.661-1.478-1.478V-6.705
				c0-0.694,0.481-1.273,1.126-1.432v-4.006h8.287v2.112c0.853,0.255,1.478,1.036,1.478,1.972v1.664v5.721v0.726
				C4.229,0.869,3.568,1.531,2.751,1.531z"/>
		</g>
		<path fill="#4D4D4D" d="M34.071,6.166c-4.965,0-8.986-4.023-8.986-8.986c0-4.962,4.022-8.983,8.986-8.985
			c4.96,0.002,8.983,4.023,8.983,8.985C43.054,2.143,39.031,6.166,34.071,6.166z M27.172-2.82c0.007,3.809,3.086,6.89,6.898,6.897
			v-6.975L27.172-2.82z"/>
	</g>
</symbol>
<symbol  id="instructor_control_panel_5" viewBox="-136.371 -21.632 235.157 38.849">
	<g>
		<polygon fill="#959595" points="-136.371,-17.319 98.785,-17.319 98.785,17.217 -136.371,17.217 		"/>
	</g>
	<g>
		<path id="mic_icon_3_" fill-rule="evenodd" clip-rule="evenodd" fill="#4D4E4E" d="M-111.522,4.333V0.11
			c-0.66-0.091-1.462-0.147-2.334-0.147c-0.898,0-1.738,0.06-2.425,0.156v4.214c0,1.331,1.065,2.41,2.38,2.41
			C-112.587,6.743-111.522,5.664-111.522,4.333z M-118.04-0.914v1.413c0,0.042,0.02,0.084,0.059,0.127
			c0.081,0.088,0.246,0.174,0.48,0.253v3.453c0,2.013,1.611,3.645,3.599,3.645c1.988,0,3.599-1.632,3.599-3.645V0.871
			c0.233-0.078,0.398-0.161,0.48-0.248c0.039-0.041,0.059-0.082,0.059-0.123v-1.413v-0.768c0-0.131-0.196-0.255-0.54-0.361v-2.373
			c0-2.013-1.611-3.645-3.599-3.645c-1.988,0-3.599,1.632-3.599,3.645v2.373c-0.344,0.106-0.54,0.23-0.54,0.361V-0.914z
			 M-114.622-10.716v0.696c-2.741,0.358-4.858,2.73-4.858,5.604v3.099h-0.541v1.458h1.799v-1.458h-0.36l0.001-3.099
			c0-2.618,2.094-4.738,4.678-4.738c2.584,0,4.678,2.121,4.678,4.738v3.099h-0.36v1.458h1.799v-1.458h-0.54v-3.099
			c0-2.874-2.118-5.245-4.859-5.604v-0.696c2.443-0.078,4.319-0.553,4.319-1.128v-0.173v-0.465c0-0.628-2.256-1.139-5.038-1.139
			c-2.783,0-5.038,0.511-5.038,1.139v0.465v0.173C-118.94-11.269-117.063-10.794-114.622-10.716z"/>
		<g id="video_icon_2_">
			<path fill-rule="evenodd" clip-rule="evenodd" fill="none" stroke="#4D4E4E" stroke-width="2.0128" stroke-miterlimit="10" d="
				M-70.25,0.218c0-3.837-3.071-6.948-6.859-6.948c-3.788,0-6.859,3.111-6.859,6.948s3.071,6.948,6.859,6.948
				C-73.321,7.165-70.25,4.055-70.25,0.218z"/>
			<path fill-rule="evenodd" clip-rule="evenodd" fill="none" stroke="#4D4E4E" stroke-width="2.0128" stroke-miterlimit="10" d="
				M-74.11,0.218c0-1.678-1.343-3.039-3-3.039c-1.657,0-3,1.36-3,3.039s1.343,3.039,3,3.039C-75.453,3.256-74.11,1.896-74.11,0.218z
				"/>
			<g>
				<defs>
					<polygon id="SVGID_3_" points="-66.84,-12.144 -85.84,-12.144 -85.84,-5.054 -66.84,-5.054 					"/>
				</defs>
				<clipPath id="SVGID_4_">
					<use xlink:href="#SVGID_3_"  overflow="visible"/>
				</clipPath>
				
					<path clip-path="url(#SVGID_4_)" fill-rule="evenodd" clip-rule="evenodd" fill="none" stroke="#4D4E4E" stroke-width="2.0128" stroke-miterlimit="10" d="
					M-70.375-13.678c0-3.837-3.015-6.948-6.734-6.948c-3.719,0-6.734,3.111-6.734,6.948s3.015,6.948,6.734,6.948
					C-73.391-6.73-70.375-9.841-70.375-13.678z"/>
			</g>
		</g>
		<g>
			<path fill="#4D4E4E" d="M82.435-2.821c0-4.71-3.818-8.527-8.527-8.527c-4.71,0-8.527,3.818-8.527,8.527s3.818,8.527,8.527,8.527
				C78.617,5.706,82.435,1.889,82.435-2.821z"/>
			<path fill="#F0EEEE" d="M79.407-2.821c0-3.038-2.462-5.5-5.5-5.5s-5.5,2.462-5.5,5.5s2.462,5.5,5.5,5.5
				S79.407,0.217,79.407-2.821z"/>
		</g>
		<g id="share_icon_11_">
			<g>
				<path fill="#4D4E4E" d="M-30.301,4.747h-16.958c-0.293,0-0.529-0.238-0.529-0.531V-6.994c0-0.293,0.237-0.531,0.529-0.531h5.749
					v-1.077c-0.688,0-2.2,0-2.2,0c-0.294,0-0.529-0.238-0.529-0.531V-9.86c0-0.291,0.235-0.529,0.529-0.529h9.864
					c0.291,0,0.529,0.238,0.529,0.529v0.728c0,0.293-0.238,0.531-0.529,0.531c0,0-1.515,0-2.204,0v1.077h5.75
					c0.293,0,0.532,0.238,0.532,0.531V4.217C-29.769,4.51-30.008,4.747-30.301,4.747z M-30.83-6.463h-15.898V3.687h15.898V-6.463z"
					/>
			</g>
		</g>
		<g>
			<path id="hand_icon_5_" fill="#4D4E4E" d="M2.751,1.529c-0.483,0-0.908-0.235-1.177-0.593V1.06c0,0.817-0.661,1.478-1.478,1.478
				c-0.475,0-0.892-0.228-1.163-0.575v0.029c0,0.817-0.661,1.478-1.478,1.478c-0.473,0-0.89-0.226-1.16-0.572v5.189
				c0,0.817-0.661,1.478-1.478,1.478c-0.817,0-1.478-0.661-1.478-1.478V-6.707c0-0.694,0.481-1.273,1.126-1.432v-4.006h8.287v2.112
				C3.604-9.777,4.229-8.995,4.229-8.06v1.664v5.721v0.726C4.229,0.867,3.568,1.529,2.751,1.529z"/>
		</g>
		<g>
			<polygon fill="#4D4E4E" points="30.462,-11.002 33.022,-11.002 33.022,9.614 30.462,9.614 			"/>
			<polygon fill="#4D4E4E" points="37.655,-11.002 37.655,5.842 35.096,5.842 35.096,-11.002 			"/>
			<polygon fill="#4D4E4E" points="42.229,-11.002 42.229,-1.01 39.67,-1.01 39.67,-11.002 			"/>
		</g>
	</g>
</symbol>
<symbol  id="peek_x5F_Save-Cancel" viewBox="-80.166 -16.01 160.333 32.02">
	<line fill="none" stroke="#A6A8AB" stroke-width="0.5" stroke-miterlimit="10" x1="-80.166" y1="15.76" x2="80.167" y2="15.76"/>
	<polygon fill="none" points="79.801,-16.01 -80.166,-16.01 -80.166,15.159 79.801,15.159 	"/>
</symbol>
<g>
	<g>
		<g>
			<circle fill-rule="evenodd" clip-rule="evenodd" fill="#FFEF00" cx="50" cy="50" r="50"/>
		</g>
	</g>
	<path fill-rule="evenodd" clip-rule="evenodd" fill="#E1D000" d="M23.001,77c17.438,17.157,39.163,19.064,62.355,8.355
		c-19.526,19.526-51.184,19.526-70.711,0c-19.527-19.526-19.527-51.184,0-70.711C7.892,39.515,6.694,60.956,23.001,77z"/>
	<path fill-rule="evenodd" clip-rule="evenodd" fill="#404041" d="M31.037,31.769c3.314,0,6,3.358,6,7.5c0,4.142-2.686,7.5-6,7.5
		c-3.314,0-6-3.358-6-7.5C25.037,35.126,27.723,31.769,31.037,31.769z"/>
	<path fill-rule="evenodd" clip-rule="evenodd" fill="#404041" d="M69.037,31.769c3.313,0,6,3.358,6,7.5c0,4.142-2.687,7.5-6,7.5
		c-3.314,0-6-3.358-6-7.5C63.037,35.126,65.723,31.769,69.037,31.769z"/>
	
		<line fill-rule="evenodd" clip-rule="evenodd" fill="none" stroke="#404041" stroke-width="3" stroke-linecap="round" stroke-linejoin="round" stroke-miterlimit="10" x1="39.037" y1="74.5" x2="62.039" y2="74.5"/>
	
		<line fill-rule="evenodd" clip-rule="evenodd" fill="none" stroke="#404041" stroke-width="3" stroke-linecap="round" stroke-linejoin="round" stroke-miterlimit="10" x1="25.037" y1="27.804" x2="37.037" y2="27.804"/>
	
		<line fill-rule="evenodd" clip-rule="evenodd" fill="none" stroke="#404041" stroke-width="3" stroke-linecap="round" stroke-linejoin="round" stroke-miterlimit="10" x1="63.037" y1="27.804" x2="75.037" y2="27.804"/>
</g>
</svg>
